<?xml version="1.0" standalone="no"?>
<!DOCTYPE svg PUBLIC "-//W3C//DTD SVG 20010904//EN"
 "http://www.w3.org/TR/2001/REC-SVG-20010904/DTD/svg10.dtd">
<svg version="1.0" xmlns="http://www.w3.org/2000/svg"
 width="300.000000pt" height="300.000000pt" viewBox="0 0 300.000000 300.000000"
 preserveAspectRatio="xMidYMid meet">
<metadata>
Created by potrace 1.14, written by Peter Selinger 2001-2017
</metadata>
<g transform="translate(0.000000,300.000000) scale(0.100000,-0.100000)"
fill="#000000" stroke="none">
<path d="M1370 2942 c0 -7 39 -35 50 -37 5 -1 31 -13 213 -100 32 -15 56 -29
55 -30 -2 -2 -47 -25 -100 -52 l-97 -49 -78 34 c-43 18 -94 39 -113 46 -19 8
-56 23 -82 36 -26 12 -55 20 -65 18 -10 -2 20 -19 72 -41 50 -21 99 -42 110
-48 11 -5 47 -20 79 -33 56 -22 58 -24 37 -35 -12 -7 -42 -18 -65 -25 -39 -12
-49 -11 -92 6 -81 33 -87 35 -149 59 -33 13 -64 26 -70 30 -18 11 -65 20 -65
11 0 -5 44 -25 98 -46 53 -21 109 -44 125 -52 15 -8 27 -13 27 -9 0 3 14 -1
30 -10 17 -9 30 -19 30 -24 0 -4 -27 -20 -60 -35 l-60 -28 -117 42 c-65 22
-127 45 -138 49 -65 27 -78 31 -94 31 -21 0 -33 -22 -25 -44 3 -8 20 -20 37
-26 18 -7 46 -18 62 -25 17 -7 48 -18 70 -25 22 -7 56 -20 75 -28 l35 -14 -65
-30 -65 -30 -95 31 c-52 17 -143 47 -203 66 -124 40 -118 39 -111 20 4 -8 14
-15 23 -15 9 0 55 -13 101 -29 47 -15 124 -40 172 -55 65 -21 87 -33 91 -48 5
-17 12 -20 44 -15 28 3 77 -8 191 -45 l152 -49 -2 -40 c-2 -21 -7 -39 -13 -40
-5 0 -17 -2 -25 -4 -8 -2 -46 -8 -85 -14 -38 -7 -84 -16 -101 -22 -17 -5 -40
-11 -51 -13 -46 -9 -123 -50 -138 -73 -15 -22 -16 -50 -12 -207 2 -99 7 -224
11 -276 16 -256 19 -309 31 -570 12 -263 19 -289 81 -319 76 -38 228 -48 374
-26 25 4 49 8 55 9 5 0 10 -24 12 -56 l2 -56 -69 -16 c-185 -42 -287 -151
-258 -279 8 -37 7 -39 -44 -86 -54 -50 -96 -118 -105 -171 l-4 -30 93 0 93 1
20 31 c11 17 29 37 41 44 18 13 22 10 49 -31 l28 -45 297 0 297 0 38 60 c21
33 39 60 41 60 23 0 76 -49 100 -93 15 -28 15 -28 107 -25 l92 3 -3 35 c-2 19
-17 61 -34 92 -30 56 -106 138 -128 138 -26 0 -37 27 -35 85 2 65 -18 110 -65
152 -54 48 -154 81 -263 86 -31 2 -61 8 -67 13 -5 5 -11 32 -14 59 -2 28 -5
55 -6 60 -5 22 1 36 13 34 14 -1 33 4 107 34 l55 22 -2 60 c-1 33 -4 187 -7
342 -3 156 -8 287 -11 293 -3 5 -1 10 5 10 6 0 8 5 3 13 -9 15 -10 28 -16 332
-3 132 -8 247 -12 257 -15 37 -199 89 -327 91 -63 1 -68 3 -68 23 0 12 6 25
13 27 9 4 9 8 -2 16 -9 5 -16 28 -17 51 -2 40 -1 41 25 35 14 -4 40 -13 56
-20 64 -28 93 -34 109 -22 24 18 9 54 -28 67 -17 7 -60 22 -96 35 l-65 22 -5
52 c-4 35 -2 52 7 55 7 3 41 -6 75 -19 35 -13 101 -38 148 -55 47 -18 89 -36
95 -41 12 -12 45 -11 45 1 0 6 -4 11 -10 11 -17 2 -24 5 -64 22 -21 9 -42 15
-46 12 -5 -3 -10 -1 -12 3 -1 5 -48 26 -103 47 -55 21 -104 41 -109 46 -4 4
10 17 32 28 22 11 42 17 46 14 3 -4 6 -1 6 5 0 11 45 -3 144 -47 23 -10 48
-21 56 -24 8 -3 52 -21 98 -41 47 -20 82 -31 80 -23 -3 6 -76 42 -163 78 -88
37 -160 71 -162 75 -2 8 172 94 190 94 5 0 46 -18 90 -39 127 -61 279 -131
284 -131 2 0 1 5 -3 11 -4 6 -59 36 -123 66 -205 96 -236 113 -236 126 0 6
-18 14 -40 18 -32 4 -281 112 -320 139 -18 12 -45 20 -45 12z m-495 -342 c3
-6 -1 -7 -9 -4 -18 7 -21 14 -7 14 6 0 13 -4 16 -10z m90 -30 c13 -6 15 -9 5
-9 -8 0 -22 4 -30 9 -18 12 -2 12 25 0z m80 -30 c13 -6 15 -9 5 -9 -8 0 -22 4
-30 9 -18 12 -2 12 25 0z m55 -20 c8 -5 11 -10 5 -10 -5 0 -17 5 -25 10 -8 5
-10 10 -5 10 6 0 17 -5 25 -10z m246 -18 c1 -25 -3 -26 -42 -12 -26 10 -26 11
-8 25 26 20 49 14 50 -13z m-73 -72 l67 -22 0 -49 c0 -27 -2 -49 -5 -49 -4 0
-207 67 -265 87 -18 7 98 62 120 58 8 -2 45 -13 83 -25z m227 -30 c8 -5 11
-10 5 -10 -5 0 -17 5 -25 10 -8 5 -10 10 -5 10 6 0 17 -5 25 -10z m61 -28 c-7
-2 -18 1 -23 6 -8 8 -4 9 13 5 13 -4 18 -8 10 -11z m-26 -20 c-3 -3 -11 0 -18
7 -9 10 -8 11 6 5 10 -3 15 -9 12 -12z m42 -8 c-3 -3 -12 -4 -19 -1 -8 3 -5 6
6 6 11 1 17 -2 13 -5z"/>
</g>
</svg>
